STARTFONT 2.1
COMMENT
COMMENT Converted from OpenType font "pixelmix.ttf" by "otf2bdf 3.0".
COMMENT
FONT -FreeType-pixelmix-Medium-R-Normal--10-70-100-100-P-61-ISO10646-1
SIZE 7 100 100
FONTBOUNDINGBOX 8 10 0 0
STARTPROPERTIES 19
FOUNDRY "FreeType"
FAMILY_NAME "pixelmix"
WEIGHT_NAME "Medium"
SLANT "R"
SETWIDTH_NAME "Normal"
ADD_STYLE_NAME ""
PIXEL_SIZE 10
POINT_SIZE 70
RESOLUTION_X 100
RESOLUTION_Y 100
SPACING "P"
AVERAGE_WIDTH 61
CHARSET_REGISTRY "ISO10646"
CHARSET_ENCODING "1"
FONT_ASCENT 10
FONT_DESCENT 0
COPYRIGHT "Copyright Andrew Tyler 2012  font@andrewtyler.net"
_OTF_FONTFILE "pixelmix.ttf"
_OTF_PSNAME "pixelmix"
ENDPROPERTIES
CHARS 418
STARTCHAR 0000
ENCODING 0
SWIDTH 0 0
DWIDTH 0 0
BBX 0 0 0 0
BITMAP
ENDCHAR
STARTCHAR 000D
ENCODING 13
SWIDTH 0 0
DWIDTH 0 0
BBX 0 0 0 0
BITMAP
ENDCHAR
STARTCHAR 0020
ENCODING 32
SWIDTH 617 0
DWIDTH 6 0
BBX 0 0 0 0
BITMAP
ENDCHAR
STARTCHAR 0021
ENCODING 33
SWIDTH 205 0
DWIDTH 2 0
BBX 1 8 0 0
BITMAP
80
80
80
80
80
80
00
80
ENDCHAR
STARTCHAR 0022
ENCODING 34
SWIDTH 411 0
DWIDTH 4 0
BBX 3 2 0 6
BITMAP
A0
A0
ENDCHAR
STARTCHAR 0023
ENCODING 35
SWIDTH 720 0
DWIDTH 7 0
BBX 6 8 0 0
BITMAP
50
FC
50
50
50
50
FC
50
ENDCHAR
STARTCHAR 0024
ENCODING 36
SWIDTH 720 0
DWIDTH 7 0
BBX 6 8 0 0
BITMAP
78
A4
A0
78
20
24
A4
78
ENDCHAR
STARTCHAR 0025
ENCODING 37
SWIDTH 720 0
DWIDTH 7 0
BBX 6 8 0 0
BITMAP
C4
C8
08
20
00
40
4C
8C
ENDCHAR
STARTCHAR 0026
ENCODING 38
SWIDTH 822 0
DWIDTH 8 0
BBX 7 8 0 0
BITMAP
E0
A0
A0
40
B2
80
84
72
ENDCHAR
STARTCHAR 0027
ENCODING 39
SWIDTH 205 0
DWIDTH 2 0
BBX 1 2 0 6
BITMAP
80
80
ENDCHAR
STARTCHAR 0028
ENCODING 40
SWIDTH 411 0
DWIDTH 4 0
BBX 3 8 0 0
BITMAP
20
40
80
80
80
80
40
20
ENDCHAR
STARTCHAR 0029
ENCODING 41
SWIDTH 411 0
DWIDTH 4 0
BBX 3 8 0 0
BITMAP
80
40
20
20
20
20
40
80
ENDCHAR
STARTCHAR 002A
ENCODING 42
SWIDTH 514 0
DWIDTH 5 0
BBX 4 3 0 5
BITMAP
40
F0
40
ENDCHAR
STARTCHAR 002B
ENCODING 43
SWIDTH 720 0
DWIDTH 7 0
BBX 6 6 0 1
BITMAP
10
10
FC
10
10
10
ENDCHAR
STARTCHAR 002C
ENCODING 44
SWIDTH 308 0
DWIDTH 3 0
BBX 2 2 0 0
BITMAP
C0
40
ENDCHAR
STARTCHAR 002D
ENCODING 45
SWIDTH 720 0
DWIDTH 7 0
BBX 6 1 0 4
BITMAP
FC
ENDCHAR
STARTCHAR 002E
ENCODING 46
SWIDTH 308 0
DWIDTH 3 0
BBX 2 2 0 0
BITMAP
C0
C0
ENDCHAR
STARTCHAR 002F
ENCODING 47
SWIDTH 411 0
DWIDTH 4 0
BBX 3 8 0 0
BITMAP
20
20
40
40
40
40
80
80
ENDCHAR
STARTCHAR 0030
ENCODING 48
SWIDTH 720 0
DWIDTH 7 0
BBX 6 8 0 0
BITMAP
78
84
9C
A4
C4
84
84
78
ENDCHAR
STARTCHAR 0031
ENCODING 49
SWIDTH 514 0
DWIDTH 5 0
BBX 4 8 0 0
BITMAP
40
C0
40
40
40
40
40
F0
ENDCHAR
STARTCHAR 0032
ENCODING 50
SWIDTH 720 0
DWIDTH 7 0
BBX 6 8 0 0
BITMAP
78
84
04
08
20
00
40
FC
ENDCHAR
STARTCHAR 0033
ENCODING 51
SWIDTH 720 0
DWIDTH 7 0
BBX 6 8 0 0
BITMAP
FC
08
20
08
00
04
84
78
ENDCHAR
STARTCHAR 0034
ENCODING 52
SWIDTH 720 0
DWIDTH 7 0
BBX 6 8 0 0
BITMAP
08
38
48
88
FC
08
08
08
ENDCHAR
STARTCHAR 0035
ENCODING 53
SWIDTH 720 0
DWIDTH 7 0
BBX 6 8 0 0
BITMAP
FC
80
F8
04
04
04
84
78
ENDCHAR
STARTCHAR 0036
ENCODING 54
SWIDTH 720 0
DWIDTH 7 0
BBX 6 8 0 0
BITMAP
30
40
80
F0
80
84
84
70
ENDCHAR
STARTCHAR 0037
ENCODING 55
SWIDTH 720 0
DWIDTH 7 0
BBX 6 8 0 0
BITMAP
FC
04
10
20
40
40
40
40
ENDCHAR
STARTCHAR 0038
ENCODING 56
SWIDTH 720 0
DWIDTH 7 0
BBX 6 8 0 0
BITMAP
78
84
84
78
00
84
84
78
ENDCHAR
STARTCHAR 0039
ENCODING 57
SWIDTH 720 0
DWIDTH 7 0
BBX 6 8 0 0
BITMAP
78
84
84
7C
04
04
08
60
ENDCHAR
STARTCHAR 003A
ENCODING 58
SWIDTH 205 0
DWIDTH 2 0
BBX 1 6 0 1
BITMAP
80
00
00
00
00
80
ENDCHAR
STARTCHAR 003B
ENCODING 59
SWIDTH 308 0
DWIDTH 3 0
BBX 2 7 0 0
BITMAP
40
00
00
00
00
C0
40
ENDCHAR
STARTCHAR 003C
ENCODING 60
SWIDTH 617 0
DWIDTH 6 0
BBX 5 8 0 0
BITMAP
08
20
40
80
40
00
20
08
ENDCHAR
STARTCHAR 003D
ENCODING 61
SWIDTH 720 0
DWIDTH 7 0
BBX 6 3 0 3
BITMAP
FC
00
FC
ENDCHAR
STARTCHAR 003E
ENCODING 62
SWIDTH 617 0
DWIDTH 6 0
BBX 5 8 0 0
BITMAP
80
40
20
08
20
00
40
80
ENDCHAR
STARTCHAR 003F
ENCODING 63
SWIDTH 617 0
DWIDTH 6 0
BBX 5 8 0 0
BITMAP
60
88
08
20
40
00
00
40
ENDCHAR
STARTCHAR 0040
ENCODING 64
SWIDTH 925 0
DWIDTH 9 0
BBX 8 8 0 0
BITMAP
7E
81
BD
A5
BF
80
80
7E
ENDCHAR
STARTCHAR 0041
ENCODING 65
SWIDTH 720 0
DWIDTH 7 0
BBX 6 8 0 0
BITMAP
78
84
84
FC
84
84
84
84
ENDCHAR
STARTCHAR 0042
ENCODING 66
SWIDTH 720 0
DWIDTH 7 0
BBX 6 8 0 0
BITMAP
F8
84
84
F8
80
84
84
F8
ENDCHAR
STARTCHAR 0043
ENCODING 67
SWIDTH 720 0
DWIDTH 7 0
BBX 6 8 0 0
BITMAP
78
84
80
80
80
80
84
78
ENDCHAR
STARTCHAR 0044
ENCODING 68
SWIDTH 720 0
DWIDTH 7 0
BBX 6 8 0 0
BITMAP
F8
84
84
84
84
84
84
F8
ENDCHAR
STARTCHAR 0045
ENCODING 69
SWIDTH 720 0
DWIDTH 7 0
BBX 6 8 0 0
BITMAP
FC
80
80
F8
80
80
80
FC
ENDCHAR
STARTCHAR 0046
ENCODING 70
SWIDTH 720 0
DWIDTH 7 0
BBX 6 8 0 0
BITMAP
FC
80
80
F8
80
80
80
80
ENDCHAR
STARTCHAR 0047
ENCODING 71
SWIDTH 720 0
DWIDTH 7 0
BBX 6 8 0 0
BITMAP
78
84
80
BC
84
84
84
7C
ENDCHAR
STARTCHAR 0048
ENCODING 72
SWIDTH 720 0
DWIDTH 7 0
BBX 6 8 0 0
BITMAP
84
84
84
FC
84
84
84
84
ENDCHAR
STARTCHAR 0049
ENCODING 73
SWIDTH 514 0
DWIDTH 5 0
BBX 4 8 0 0
BITMAP
F0
40
40
40
40
40
40
F0
ENDCHAR
STARTCHAR 004A
ENCODING 74
SWIDTH 720 0
DWIDTH 7 0
BBX 6 8 0 0
BITMAP
3C
08
08
08
08
08
88
60
ENDCHAR
STARTCHAR 004B
ENCODING 75
SWIDTH 720 0
DWIDTH 7 0
BBX 6 8 0 0
BITMAP
84
88
A0
C0
A0
80
88
84
ENDCHAR
STARTCHAR 004C
ENCODING 76
SWIDTH 720 0
DWIDTH 7 0
BBX 6 8 0 0
BITMAP
80
80
80
80
80
80
80
FC
ENDCHAR
STARTCHAR 004D
ENCODING 77
SWIDTH 617 0
DWIDTH 6 0
BBX 5 8 0 0
BITMAP
88
D8
A8
A8
88
88
88
88
ENDCHAR
STARTCHAR 004E
ENCODING 78
SWIDTH 617 0
DWIDTH 6 0
BBX 5 8 0 0
BITMAP
88
88
C8
A8
98
88
88
88
ENDCHAR
STARTCHAR 004F
ENCODING 79
SWIDTH 720 0
DWIDTH 7 0
BBX 6 8 0 0
BITMAP
78
84
84
84
84
84
84
78
ENDCHAR
STARTCHAR 0050
ENCODING 80
SWIDTH 720 0
DWIDTH 7 0
BBX 6 8 0 0
BITMAP
F8
84
84
F8
80
80
80
80
ENDCHAR
STARTCHAR 0051
ENCODING 81
SWIDTH 720 0
DWIDTH 7 0
BBX 6 8 0 0
BITMAP
FC
84
84
84
A4
80
88
64
ENDCHAR
STARTCHAR 0052
ENCODING 82
SWIDTH 720 0
DWIDTH 7 0
BBX 6 8 0 0
BITMAP
F8
84
84
F8
A0
80
88
84
ENDCHAR
STARTCHAR 0053
ENCODING 83
SWIDTH 720 0
DWIDTH 7 0
BBX 6 8 0 0
BITMAP
7C
80
80
78
00
04
04
F8
ENDCHAR
STARTCHAR 0054
ENCODING 84
SWIDTH 720 0
DWIDTH 7 0
BBX 6 8 0 0
BITMAP
FC
10
10
10
10
10
10
10
ENDCHAR
STARTCHAR 0055
ENCODING 85
SWIDTH 720 0
DWIDTH 7 0
BBX 6 8 0 0
BITMAP
84
84
84
84
84
84
84
78
ENDCHAR
STARTCHAR 0056
ENCODING 86
SWIDTH 720 0
DWIDTH 7 0
BBX 6 8 0 0
BITMAP
84
84
84
84
00
48
48
20
ENDCHAR
STARTCHAR 0057
ENCODING 87
SWIDTH 720 0
DWIDTH 7 0
BBX 6 8 0 0
BITMAP
84
84
84
A4
A4
A4
A4
48
ENDCHAR
STARTCHAR 0058
ENCODING 88
SWIDTH 720 0
DWIDTH 7 0
BBX 6 8 0 0
BITMAP
84
84
48
20
48
00
84
84
ENDCHAR
STARTCHAR 0059
ENCODING 89
SWIDTH 720 0
DWIDTH 7 0
BBX 6 8 0 0
BITMAP
84
84
84
48
20
20
20
20
ENDCHAR
STARTCHAR 005A
ENCODING 90
SWIDTH 720 0
DWIDTH 7 0
BBX 6 8 0 0
BITMAP
FC
04
08
20
40
00
80
FC
ENDCHAR
STARTCHAR 005B
ENCODING 91
SWIDTH 308 0
DWIDTH 3 0
BBX 2 8 0 0
BITMAP
C0
80
80
80
80
80
80
C0
ENDCHAR
STARTCHAR 005C
ENCODING 92
SWIDTH 411 0
DWIDTH 4 0
BBX 3 8 0 0
BITMAP
80
80
40
40
40
40
20
20
ENDCHAR
STARTCHAR 005D
ENCODING 93
SWIDTH 308 0
DWIDTH 3 0
BBX 2 8 0 0
BITMAP
C0
40
40
40
40
40
40
C0
ENDCHAR
STARTCHAR 005E
ENCODING 94
SWIDTH 720 0
DWIDTH 7 0
BBX 6 3 0 5
BITMAP
20
48
84
ENDCHAR
STARTCHAR 005F
ENCODING 95
SWIDTH 617 0
DWIDTH 6 0
BBX 5 1 0 0
BITMAP
F8
ENDCHAR
STARTCHAR 0060
ENCODING 96
SWIDTH 308 0
DWIDTH 3 0
BBX 2 2 0 6
BITMAP
80
40
ENDCHAR
STARTCHAR 0061
ENCODING 97
SWIDTH 720 0
DWIDTH 7 0
BBX 6 6 0 0
BITMAP
78
04
7C
04
84
7C
ENDCHAR
STARTCHAR 0062
ENCODING 98
SWIDTH 720 0
DWIDTH 7 0
BBX 5 8 0 0
BITMAP
80
80
B0
C8
88
88
88
F0
ENDCHAR
STARTCHAR 0063
ENCODING 99
SWIDTH 720 0
DWIDTH 7 0
BBX 6 6 0 0
BITMAP
78
80
80
80
84
78
ENDCHAR
STARTCHAR 0064
ENCODING 100
SWIDTH 720 0
DWIDTH 7 0
BBX 6 8 0 0
BITMAP
04
04
64
9C
84
84
84
7C
ENDCHAR
STARTCHAR 0065
ENCODING 101
SWIDTH 720 0
DWIDTH 7 0
BBX 6 6 0 0
BITMAP
78
84
FC
80
80
78
ENDCHAR
STARTCHAR 0066
ENCODING 102
SWIDTH 720 0
DWIDTH 7 0
BBX 6 10 0 0
BITMAP
18
00
44
40
40
F0
40
40
40
40
ENDCHAR
STARTCHAR 0067
ENCODING 103
SWIDTH 720 0
DWIDTH 7 0
BBX 6 7 0 0
BITMAP
7C
84
84
7C
04
04
78
ENDCHAR
STARTCHAR 0068
ENCODING 104
SWIDTH 720 0
DWIDTH 7 0
BBX 5 8 0 0
BITMAP
80
80
B0
C8
88
88
88
88
ENDCHAR
STARTCHAR 0069
ENCODING 105
SWIDTH 514 0
DWIDTH 5 0
BBX 4 8 0 0
BITMAP
40
00
C0
40
40
40
40
F0
ENDCHAR
STARTCHAR 006A
ENCODING 106
SWIDTH 617 0
DWIDTH 6 0
BBX 5 8 0 0
BITMAP
08
00
08
08
08
08
88
60
ENDCHAR
STARTCHAR 006B
ENCODING 107
SWIDTH 617 0
DWIDTH 6 0
BBX 5 8 0 0
BITMAP
80
80
88
A0
C0
80
A0
88
ENDCHAR
STARTCHAR 006C
ENCODING 108
SWIDTH 514 0
DWIDTH 5 0
BBX 4 8 0 0
BITMAP
C0
40
40
40
40
40
40
F0
ENDCHAR
STARTCHAR 006D
ENCODING 109
SWIDTH 720 0
DWIDTH 7 0
BBX 6 6 0 0
BITMAP
C8
A4
A4
84
84
84
ENDCHAR
STARTCHAR 006E
ENCODING 110
SWIDTH 720 0
DWIDTH 7 0
BBX 5 6 0 0
BITMAP
B0
C8
88
88
88
88
ENDCHAR
STARTCHAR 006F
ENCODING 111
SWIDTH 720 0
DWIDTH 7 0
BBX 6 6 0 0
BITMAP
78
84
84
84
84
78
ENDCHAR
STARTCHAR 0070
ENCODING 112
SWIDTH 720 0
DWIDTH 7 0
BBX 6 6 0 0
BITMAP
F8
84
F8
80
80
80
ENDCHAR
STARTCHAR 0071
ENCODING 113
SWIDTH 720 0
DWIDTH 7 0
BBX 6 6 0 0
BITMAP
64
9C
7C
04
04
04
ENDCHAR
STARTCHAR 0072
ENCODING 114
SWIDTH 720 0
DWIDTH 7 0
BBX 5 6 0 0
BITMAP
B0
C8
80
80
80
80
ENDCHAR
STARTCHAR 0073
ENCODING 115
SWIDTH 720 0
DWIDTH 7 0
BBX 6 6 0 0
BITMAP
78
80
78
00
04
F8
ENDCHAR
STARTCHAR 0074
ENCODING 116
SWIDTH 720 0
DWIDTH 7 0
BBX 6 8 0 0
BITMAP
40
40
F0
40
40
40
44
18
ENDCHAR
STARTCHAR 0075
ENCODING 117
SWIDTH 720 0
DWIDTH 7 0
BBX 6 6 0 0
BITMAP
84
84
84
84
84
78
ENDCHAR
STARTCHAR 0076
ENCODING 118
SWIDTH 720 0
DWIDTH 7 0
BBX 6 6 0 0
BITMAP
84
84
84
84
48
20
ENDCHAR
STARTCHAR 0077
ENCODING 119
SWIDTH 720 0
DWIDTH 7 0
BBX 6 6 0 0
BITMAP
84
84
84
A4
A4
48
ENDCHAR
STARTCHAR 0078
ENCODING 120
SWIDTH 720 0
DWIDTH 7 0
BBX 6 6 0 0
BITMAP
84
48
20
00
48
84
ENDCHAR
STARTCHAR 0079
ENCODING 121
SWIDTH 720 0
DWIDTH 7 0
BBX 6 6 0 0
BITMAP
84
84
7C
04
04
78
ENDCHAR
STARTCHAR 007A
ENCODING 122
SWIDTH 720 0
DWIDTH 7 0
BBX 6 6 0 0
BITMAP
FC
08
10
00
40
FC
ENDCHAR
STARTCHAR 007B
ENCODING 123
SWIDTH 411 0
DWIDTH 4 0
BBX 3 8 0 0
BITMAP
60
40
40
80
40
40
40
60
ENDCHAR
STARTCHAR 007C
ENCODING 124
SWIDTH 205 0
DWIDTH 2 0
BBX 1 8 0 0
BITMAP
80
80
80
80
80
80
80
80
ENDCHAR
STARTCHAR 007D
ENCODING 125
SWIDTH 411 0
DWIDTH 4 0
BBX 3 8 0 0
BITMAP
C0
40
40
20
40
40
40
C0
ENDCHAR
STARTCHAR 007E
ENCODING 126
SWIDTH 720 0
DWIDTH 7 0
BBX 6 3 0 3
BITMAP
40
A4
08
ENDCHAR
STARTCHAR 00A0
ENCODING 160
SWIDTH 617 0
DWIDTH 6 0
BBX 6 1 0 0
BITMAP
FC
ENDCHAR
STARTCHAR 00A1
ENCODING 161
SWIDTH 720 0
DWIDTH 7 0
BBX 6 8 0 0
BITMAP
FC
FC
FC
FC
FC
FC
FC
FC
ENDCHAR
STARTCHAR 00A2
ENCODING 162
SWIDTH 720 0
DWIDTH 7 0
BBX 6 8 0 0
BITMAP
FC
FC
FC
FC
FC
FC
FC
FC
ENDCHAR
STARTCHAR 00A3
ENCODING 163
SWIDTH 720 0
DWIDTH 7 0
BBX 6 8 0 0
BITMAP
FC
FC
FC
FC
FC
FC
FC
FC
ENDCHAR
STARTCHAR 00A4
ENCODING 164
SWIDTH 720 0
DWIDTH 7 0
BBX 6 8 0 0
BITMAP
FC
FC
FC
FC
FC
FC
FC
FC
ENDCHAR
STARTCHAR 00A5
ENCODING 165
SWIDTH 720 0
DWIDTH 7 0
BBX 6 8 0 0
BITMAP
FC
FC
FC
FC
FC
FC
FC
FC
ENDCHAR
STARTCHAR 00A6
ENCODING 166
SWIDTH 205 0
DWIDTH 2 0
BBX 1 8 0 0
BITMAP
80
80
80
00
80
80
80
80
ENDCHAR
STARTCHAR 00A7
ENCODING 167
SWIDTH 720 0
DWIDTH 7 0
BBX 6 8 0 0
BITMAP
FC
FC
FC
FC
FC
FC
FC
FC
ENDCHAR
STARTCHAR 00A8
ENCODING 168
SWIDTH 720 0
DWIDTH 7 0
BBX 6 8 0 0
BITMAP
FC
FC
FC
FC
FC
FC
FC
FC
ENDCHAR
STARTCHAR 00A9
ENCODING 169
SWIDTH 822 0
DWIDTH 8 0
BBX 7 8 0 0
BITMAP
7C
82
BA
A2
A2
BA
82
7C
ENDCHAR
STARTCHAR 00AA
ENCODING 170
SWIDTH 720 0
DWIDTH 7 0
BBX 6 9 0 0
BITMAP
FC
FC
FC
FC
FC
FC
FC
FC
FC
ENDCHAR
STARTCHAR 00AB
ENCODING 171
SWIDTH 720 0
DWIDTH 7 0
BBX 6 4 0 0
BITMAP
44
00
88
44
ENDCHAR
STARTCHAR 00AC
ENCODING 172
SWIDTH 720 0
DWIDTH 7 0
BBX 6 8 0 0
BITMAP
FC
FC
FC
FC
FC
FC
FC
FC
ENDCHAR
STARTCHAR 00AD
ENCODING 173
SWIDTH 514 0
DWIDTH 5 0
BBX 4 1 0 4
BITMAP
F0
ENDCHAR
STARTCHAR 00AE
ENCODING 174
SWIDTH 720 0
DWIDTH 7 0
BBX 6 8 0 0
BITMAP
FC
FC
FC
FC
FC
FC
FC
FC
ENDCHAR
STARTCHAR 00AF
ENCODING 175
SWIDTH 720 0
DWIDTH 7 0
BBX 6 1 0 7
BITMAP
FC
ENDCHAR
STARTCHAR 00B0
ENCODING 176
SWIDTH 617 0
DWIDTH 6 0
BBX 5 5 0 4
BITMAP
60
00
88
88
60
ENDCHAR
STARTCHAR 00B1
ENCODING 177
SWIDTH 720 0
DWIDTH 7 0
BBX 6 8 0 0
BITMAP
10
10
FC
10
10
10
00
FC
ENDCHAR
STARTCHAR 00B2
ENCODING 178
SWIDTH 720 0
DWIDTH 7 0
BBX 6 9 0 0
BITMAP
FC
FC
FC
FC
FC
FC
FC
FC
FC
ENDCHAR
STARTCHAR 00B3
ENCODING 179
SWIDTH 720 0
DWIDTH 7 0
BBX 6 9 0 0
BITMAP
FC
FC
FC
FC
FC
FC
FC
FC
FC
ENDCHAR
STARTCHAR 00B4
ENCODING 180
SWIDTH 720 0
DWIDTH 7 0
BBX 6 8 0 0
BITMAP
FC
FC
FC
FC
FC
FC
FC
FC
ENDCHAR
STARTCHAR 00B5
ENCODING 181
SWIDTH 720 0
DWIDTH 7 0
BBX 6 8 0 0
BITMAP
FC
FC
FC
FC
FC
FC
FC
FC
ENDCHAR
STARTCHAR 00B6
ENCODING 182
SWIDTH 720 0
DWIDTH 7 0
BBX 6 8 0 0
BITMAP
FC
FC
FC
FC
FC
FC
FC
FC
ENDCHAR
STARTCHAR 00B7
ENCODING 183
SWIDTH 205 0
DWIDTH 2 0
BBX 1 1 0 4
BITMAP
80
ENDCHAR
STARTCHAR 00B8
ENCODING 184
SWIDTH 720 0
DWIDTH 7 0
BBX 6 8 0 0
BITMAP
FC
FC
FC
FC
FC
FC
FC
FC
ENDCHAR
STARTCHAR 00B9
ENCODING 185
SWIDTH 720 0
DWIDTH 7 0
BBX 6 9 0 0
BITMAP
FC
FC
FC
FC
FC
FC
FC
FC
FC
ENDCHAR
STARTCHAR 00BA
ENCODING 186
SWIDTH 720 0
DWIDTH 7 0
BBX 6 9 0 0
BITMAP
FC
FC
FC
FC
FC
FC
FC
FC
FC
ENDCHAR
STARTCHAR 00BB
ENCODING 187
SWIDTH 720 0
DWIDTH 7 0
BBX 6 4 0 0
BITMAP
88
00
44
88
ENDCHAR
STARTCHAR 00BC
ENCODING 188
SWIDTH 720 0
DWIDTH 7 0
BBX 6 8 0 0
BITMAP
FC
FC
FC
FC
FC
FC
FC
FC
ENDCHAR
STARTCHAR 00BD
ENCODING 189
SWIDTH 720 0
DWIDTH 7 0
BBX 6 8 0 0
BITMAP
FC
FC
FC
FC
FC
FC
FC
FC
ENDCHAR
STARTCHAR 00BE
ENCODING 190
SWIDTH 720 0
DWIDTH 7 0
BBX 6 8 0 0
BITMAP
FC
FC
FC
FC
FC
FC
FC
FC
ENDCHAR
STARTCHAR 00BF
ENCODING 191
SWIDTH 720 0
DWIDTH 7 0
BBX 6 8 0 0
BITMAP
FC
FC
FC
FC
FC
FC
FC
FC
ENDCHAR
STARTCHAR 00C0
ENCODING 192
SWIDTH 822 0
DWIDTH 8 0
BBX 7 8 0 0
BITMAP
FE
FE
FE
FE
FE
FE
FE
FE
ENDCHAR
STARTCHAR 00C1
ENCODING 193
SWIDTH 720 0
DWIDTH 7 0
BBX 6 8 0 0
BITMAP
FC
FC
FC
FC
FC
FC
FC
FC
ENDCHAR
STARTCHAR 00C2
ENCODING 194
SWIDTH 720 0
DWIDTH 7 0
BBX 6 8 0 0
BITMAP
FC
FC
FC
FC
FC
FC
FC
FC
ENDCHAR
STARTCHAR 00C3
ENCODING 195
SWIDTH 720 0
DWIDTH 7 0
BBX 6 8 0 0
BITMAP
FC
FC
FC
FC
FC
FC
FC
FC
ENDCHAR
STARTCHAR 00C4
ENCODING 196
SWIDTH 720 0
DWIDTH 7 0
BBX 6 8 0 0
BITMAP
FC
FC
FC
FC
FC
FC
FC
FC
ENDCHAR
STARTCHAR 00C5
ENCODING 197
SWIDTH 720 0
DWIDTH 7 0
BBX 6 8 0 0
BITMAP
FC
FC
FC
FC
FC
FC
FC
FC
ENDCHAR
STARTCHAR 00C6
ENCODING 198
SWIDTH 720 0
DWIDTH 7 0
BBX 6 8 0 0
BITMAP
FC
FC
FC
FC
FC
FC
FC
FC
ENDCHAR
STARTCHAR 00C7
ENCODING 199
SWIDTH 720 0
DWIDTH 7 0
BBX 6 8 0 0
BITMAP
FC
FC
FC
FC
FC
FC
FC
FC
ENDCHAR
STARTCHAR 00C8
ENCODING 200
SWIDTH 720 0
DWIDTH 7 0
BBX 6 8 0 0
BITMAP
FC
FC
FC
FC
FC
FC
FC
FC
ENDCHAR
STARTCHAR 00C9
ENCODING 201
SWIDTH 720 0
DWIDTH 7 0
BBX 6 8 0 0
BITMAP
FC
FC
FC
FC
FC
FC
FC
FC
ENDCHAR
STARTCHAR 00CA
ENCODING 202
SWIDTH 720 0
DWIDTH 7 0
BBX 6 8 0 0
BITMAP
FC
FC
FC
FC
FC
FC
FC
FC
ENDCHAR
STARTCHAR 00CB
ENCODING 203
SWIDTH 720 0
DWIDTH 7 0
BBX 6 8 0 0
BITMAP
FC
FC
FC
FC
FC
FC
FC
FC
ENDCHAR
STARTCHAR 00CC
ENCODING 204
SWIDTH 720 0
DWIDTH 7 0
BBX 6 8 0 0
BITMAP
FC
FC
FC
FC
FC
FC
FC
FC
ENDCHAR
STARTCHAR 00CD
ENCODING 205
SWIDTH 720 0
DWIDTH 7 0
BBX 6 8 0 0
BITMAP
FC
FC
FC
FC
FC
FC
FC
FC
ENDCHAR
STARTCHAR 00CE
ENCODING 206
SWIDTH 720 0
DWIDTH 7 0
BBX 6 8 0 0
BITMAP
FC
FC
FC
FC
FC
FC
FC
FC
ENDCHAR
STARTCHAR 00CF
ENCODING 207
SWIDTH 720 0
DWIDTH 7 0
BBX 6 8 0 0
BITMAP
FC
FC
FC
FC
FC
FC
FC
FC
ENDCHAR
STARTCHAR 00D0
ENCODING 208
SWIDTH 720 0
DWIDTH 7 0
BBX 6 8 0 0
BITMAP
FC
FC
FC
FC
FC
FC
FC
FC
ENDCHAR
STARTCHAR 00D1
ENCODING 209
SWIDTH 720 0
DWIDTH 7 0
BBX 6 8 0 0
BITMAP
FC
FC
FC
FC
FC
FC
FC
FC
ENDCHAR
STARTCHAR 00D2
ENCODING 210
SWIDTH 720 0
DWIDTH 7 0
BBX 6 8 0 0
BITMAP
FC
FC
FC
FC
FC
FC
FC
FC
ENDCHAR
STARTCHAR 00D3
ENCODING 211
SWIDTH 720 0
DWIDTH 7 0
BBX 6 8 0 0
BITMAP
FC
FC
FC
FC
FC
FC
FC
FC
ENDCHAR
STARTCHAR 00D4
ENCODING 212
SWIDTH 720 0
DWIDTH 7 0
BBX 6 8 0 0
BITMAP
FC
FC
FC
FC
FC
FC
FC
FC
ENDCHAR
STARTCHAR 00D5
ENCODING 213
SWIDTH 720 0
DWIDTH 7 0
BBX 6 8 0 0
BITMAP
FC
FC
FC
FC
FC
FC
FC
FC
ENDCHAR
STARTCHAR 00D6
ENCODING 214
SWIDTH 720 0
DWIDTH 7 0
BBX 6 8 0 0
BITMAP
FC
FC
FC
FC
FC
FC
FC
FC
ENDCHAR
STARTCHAR 00D7
ENCODING 215
SWIDTH 720 0
DWIDTH 7 0
BBX 6 6 0 0
BITMAP
84
48
20
00
48
84
ENDCHAR
STARTCHAR 00D8
ENCODING 216
SWIDTH 720 0
DWIDTH 7 0
BBX 6 8 0 0
BITMAP
FC
FC
FC
FC
FC
FC
FC
FC
ENDCHAR
STARTCHAR 00D9
ENCODING 217
SWIDTH 720 0
DWIDTH 7 0
BBX 6 8 0 0
BITMAP
FC
FC
FC
FC
FC
FC
FC
FC
ENDCHAR
STARTCHAR 00DA
ENCODING 218
SWIDTH 720 0
DWIDTH 7 0
BBX 6 8 0 0
BITMAP
FC
FC
FC
FC
FC
FC
FC
FC
ENDCHAR
STARTCHAR 00DB
ENCODING 219
SWIDTH 720 0
DWIDTH 7 0
BBX 6 8 0 0
BITMAP
FC
FC
FC
FC
FC
FC
FC
FC
ENDCHAR
STARTCHAR 00DC
ENCODING 220
SWIDTH 720 0
DWIDTH 7 0
BBX 6 8 0 0
BITMAP
FC
FC
FC
FC
FC
FC
FC
FC
ENDCHAR
STARTCHAR 00DD
ENCODING 221
SWIDTH 720 0
DWIDTH 7 0
BBX 6 8 0 0
BITMAP
FC
FC
FC
FC
FC
FC
FC
FC
ENDCHAR
STARTCHAR 00DE
ENCODING 222
SWIDTH 720 0
DWIDTH 7 0
BBX 6 8 0 0
BITMAP
FC
FC
FC
FC
FC
FC
FC
FC
ENDCHAR
STARTCHAR 00DF
ENCODING 223
SWIDTH 720 0
DWIDTH 7 0
BBX 6 8 0 0
BITMAP
FC
FC
FC
FC
FC
FC
FC
FC
ENDCHAR
STARTCHAR 00E0
ENCODING 224
SWIDTH 720 0
DWIDTH 7 0
BBX 6 8 0 0
BITMAP
FC
FC
FC
FC
FC
FC
FC
FC
ENDCHAR
STARTCHAR 00E1
ENCODING 225
SWIDTH 720 0
DWIDTH 7 0
BBX 6 8 0 0
BITMAP
FC
FC
FC
FC
FC
FC
FC
FC
ENDCHAR
STARTCHAR 00E2
ENCODING 226
SWIDTH 720 0
DWIDTH 7 0
BBX 6 8 0 0
BITMAP
FC
FC
FC
FC
FC
FC
FC
FC
ENDCHAR
STARTCHAR 00E3
ENCODING 227
SWIDTH 720 0
DWIDTH 7 0
BBX 6 8 0 0
BITMAP
FC
FC
FC
FC
FC
FC
FC
FC
ENDCHAR
STARTCHAR 00E4
ENCODING 228
SWIDTH 720 0
DWIDTH 7 0
BBX 6 8 0 0
BITMAP
FC
FC
FC
FC
FC
FC
FC
FC
ENDCHAR
STARTCHAR 00E5
ENCODING 229
SWIDTH 720 0
DWIDTH 7 0
BBX 6 8 0 0
BITMAP
FC
FC
FC
FC
FC
FC
FC
FC
ENDCHAR
STARTCHAR 00E6
ENCODING 230
SWIDTH 720 0
DWIDTH 7 0
BBX 6 8 0 0
BITMAP
FC
FC
FC
FC
FC
FC
FC
FC
ENDCHAR
STARTCHAR 00E7
ENCODING 231
SWIDTH 720 0
DWIDTH 7 0
BBX 6 8 0 0
BITMAP
FC
FC
FC
FC
FC
FC
FC
FC
ENDCHAR
STARTCHAR 00E8
ENCODING 232
SWIDTH 720 0
DWIDTH 7 0
BBX 6 8 0 0
BITMAP
FC
FC
FC
FC
FC
FC
FC
FC
ENDCHAR
STARTCHAR 00E9
ENCODING 233
SWIDTH 720 0
DWIDTH 7 0
BBX 6 8 0 0
BITMAP
FC
FC
FC
FC
FC
FC
FC
FC
ENDCHAR
STARTCHAR 00EA
ENCODING 234
SWIDTH 720 0
DWIDTH 7 0
BBX 6 8 0 0
BITMAP
FC
FC
FC
FC
FC
FC
FC
FC
ENDCHAR
STARTCHAR 00EB
ENCODING 235
SWIDTH 720 0
DWIDTH 7 0
BBX 6 8 0 0
BITMAP
FC
FC
FC
FC
FC
FC
FC
FC
ENDCHAR
STARTCHAR 00EC
ENCODING 236
SWIDTH 720 0
DWIDTH 7 0
BBX 6 8 0 0
BITMAP
FC
FC
FC
FC
FC
FC
FC
FC
ENDCHAR
STARTCHAR 00ED
ENCODING 237
SWIDTH 720 0
DWIDTH 7 0
BBX 6 8 0 0
BITMAP
FC
FC
FC
FC
FC
FC
FC
FC
ENDCHAR
STARTCHAR 00EE
ENCODING 238
SWIDTH 720 0
DWIDTH 7 0
BBX 6 8 0 0
BITMAP
FC
FC
FC
FC
FC
FC
FC
FC
ENDCHAR
STARTCHAR 00EF
ENCODING 239
SWIDTH 720 0
DWIDTH 7 0
BBX 6 8 0 0
BITMAP
FC
FC
FC
FC
FC
FC
FC
FC
ENDCHAR
STARTCHAR 00F0
ENCODING 240
SWIDTH 720 0
DWIDTH 7 0
BBX 6 8 0 0
BITMAP
FC
FC
FC
FC
FC
FC
FC
FC
ENDCHAR
STARTCHAR 00F1
ENCODING 241
SWIDTH 720 0
DWIDTH 7 0
BBX 6 8 0 0
BITMAP
FC
FC
FC
FC
FC
FC
FC
FC
ENDCHAR
STARTCHAR 00F2
ENCODING 242
SWIDTH 720 0
DWIDTH 7 0
BBX 6 8 0 0
BITMAP
FC
FC
FC
FC
FC
FC
FC
FC
ENDCHAR
STARTCHAR 00F3
ENCODING 243
SWIDTH 720 0
DWIDTH 7 0
BBX 6 8 0 0
BITMAP
FC
FC
FC
FC
FC
FC
FC
FC
ENDCHAR
STARTCHAR 00F4
ENCODING 244
SWIDTH 720 0
DWIDTH 7 0
BBX 6 8 0 0
BITMAP
FC
FC
FC
FC
FC
FC
FC
FC
ENDCHAR
STARTCHAR 00F5
ENCODING 245
SWIDTH 720 0
DWIDTH 7 0
BBX 6 8 0 0
BITMAP
FC
FC
FC
FC
FC
FC
FC
FC
ENDCHAR
STARTCHAR 00F6
ENCODING 246
SWIDTH 720 0
DWIDTH 7 0
BBX 6 8 0 0
BITMAP
FC
FC
FC
FC
FC
FC
FC
FC
ENDCHAR
STARTCHAR 00F7
ENCODING 247
SWIDTH 720 0
DWIDTH 7 0
BBX 6 6 0 0
BITMAP
10
00
FC
00
00
10
ENDCHAR
STARTCHAR 00F8
ENCODING 248
SWIDTH 720 0
DWIDTH 7 0
BBX 6 8 0 0
BITMAP
FC
FC
FC
FC
FC
FC
FC
FC
ENDCHAR
STARTCHAR 00F9
ENCODING 249
SWIDTH 720 0
DWIDTH 7 0
BBX 6 8 0 0
BITMAP
FC
FC
FC
FC
FC
FC
FC
FC
ENDCHAR
STARTCHAR 00FA
ENCODING 250
SWIDTH 720 0
DWIDTH 7 0
BBX 6 8 0 0
BITMAP
FC
FC
FC
FC
FC
FC
FC
FC
ENDCHAR
STARTCHAR 00FB
ENCODING 251
SWIDTH 720 0
DWIDTH 7 0
BBX 6 8 0 0
BITMAP
FC
FC
FC
FC
FC
FC
FC
FC
ENDCHAR
STARTCHAR 00FC
ENCODING 252
SWIDTH 720 0
DWIDTH 7 0
BBX 6 8 0 0
BITMAP
FC
FC
FC
FC
FC
FC
FC
FC
ENDCHAR
STARTCHAR 00FD
ENCODING 253
SWIDTH 720 0
DWIDTH 7 0
BBX 6 8 0 0
BITMAP
FC
FC
FC
FC
FC
FC
FC
FC
ENDCHAR
STARTCHAR 00FE
ENCODING 254
SWIDTH 720 0
DWIDTH 7 0
BBX 6 8 0 0
BITMAP
FC
FC
FC
FC
FC
FC
FC
FC
ENDCHAR
STARTCHAR 00FF
ENCODING 255
SWIDTH 720 0
DWIDTH 7 0
BBX 6 8 0 0
BITMAP
FC
FC
FC
FC
FC
FC
FC
FC
ENDCHAR
STARTCHAR 0178
ENCODING 376
SWIDTH 720 0
DWIDTH 7 0
BBX 6 8 0 0
BITMAP
FC
FC
FC
FC
FC
FC
FC
FC
ENDCHAR
STARTCHAR 0180
ENCODING 384
SWIDTH 720 0
DWIDTH 7 0
BBX 6 8 0 0
BITMAP
FC
FC
FC
FC
FC
FC
FC
FC
ENDCHAR
STARTCHAR 0181
ENCODING 385
SWIDTH 720 0
DWIDTH 7 0
BBX 6 8 0 0
BITMAP
FC
FC
FC
FC
FC
FC
FC
FC
ENDCHAR
STARTCHAR 0182
ENCODING 386
SWIDTH 720 0
DWIDTH 7 0
BBX 6 8 0 0
BITMAP
FC
FC
FC
FC
FC
FC
FC
FC
ENDCHAR
STARTCHAR 0183
ENCODING 387
SWIDTH 720 0
DWIDTH 7 0
BBX 6 8 0 0
BITMAP
FC
FC
FC
FC
FC
FC
FC
FC
ENDCHAR
STARTCHAR 0184
ENCODING 388
SWIDTH 720 0
DWIDTH 7 0
BBX 6 8 0 0
BITMAP
FC
FC
FC
FC
FC
FC
FC
FC
ENDCHAR
STARTCHAR 0185
ENCODING 389
SWIDTH 720 0
DWIDTH 7 0
BBX 6 8 0 0
BITMAP
FC
FC
FC
FC
FC
FC
FC
FC
ENDCHAR
STARTCHAR 0186
ENCODING 390
SWIDTH 720 0
DWIDTH 7 0
BBX 6 8 0 0
BITMAP
FC
FC
FC
FC
FC
FC
FC
FC
ENDCHAR
STARTCHAR 0187
ENCODING 391
SWIDTH 720 0
DWIDTH 7 0
BBX 6 8 0 0
BITMAP
FC
FC
FC
FC
FC
FC
FC
FC
ENDCHAR
STARTCHAR 0188
ENCODING 392
SWIDTH 720 0
DWIDTH 7 0
BBX 6 8 0 0
BITMAP
FC
FC
FC
FC
FC
FC
FC
FC
ENDCHAR
STARTCHAR 0189
ENCODING 393
SWIDTH 720 0
DWIDTH 7 0
BBX 6 8 0 0
BITMAP
FC
FC
FC
FC
FC
FC
FC
FC
ENDCHAR
STARTCHAR 018A
ENCODING 394
SWIDTH 720 0
DWIDTH 7 0
BBX 6 8 0 0
BITMAP
FC
FC
FC
FC
FC
FC
FC
FC
ENDCHAR
STARTCHAR 018B
ENCODING 395
SWIDTH 720 0
DWIDTH 7 0
BBX 6 8 0 0
BITMAP
FC
FC
FC
FC
FC
FC
FC
FC
ENDCHAR
STARTCHAR 018C
ENCODING 396
SWIDTH 720 0
DWIDTH 7 0
BBX 6 8 0 0
BITMAP
FC
FC
FC
FC
FC
FC
FC
FC
ENDCHAR
STARTCHAR 018D
ENCODING 397
SWIDTH 720 0
DWIDTH 7 0
BBX 6 8 0 0
BITMAP
FC
FC
FC
FC
FC
FC
FC
FC
ENDCHAR
STARTCHAR 018E
ENCODING 398
SWIDTH 720 0
DWIDTH 7 0
BBX 6 8 0 0
BITMAP
FC
FC
FC
FC
FC
FC
FC
FC
ENDCHAR
STARTCHAR 018F
ENCODING 399
SWIDTH 720 0
DWIDTH 7 0
BBX 6 8 0 0
BITMAP
FC
FC
FC
FC
FC
FC
FC
FC
ENDCHAR
STARTCHAR 0190
ENCODING 400
SWIDTH 720 0
DWIDTH 7 0
BBX 6 8 0 0
BITMAP
FC
FC
FC
FC
FC
FC
FC
FC
ENDCHAR
STARTCHAR 0191
ENCODING 401
SWIDTH 720 0
DWIDTH 7 0
BBX 6 8 0 0
BITMAP
FC
FC
FC
FC
FC
FC
FC
FC
ENDCHAR
STARTCHAR 0192
ENCODING 402
SWIDTH 720 0
DWIDTH 7 0
BBX 6 8 0 0
BITMAP
FC
FC
FC
FC
FC
FC
FC
FC
ENDCHAR
STARTCHAR 0193
ENCODING 403
SWIDTH 720 0
DWIDTH 7 0
BBX 6 8 0 0
BITMAP
FC
FC
FC
FC
FC
FC
FC
FC
ENDCHAR
STARTCHAR 0194
ENCODING 404
SWIDTH 720 0
DWIDTH 7 0
BBX 6 8 0 0
BITMAP
FC
FC
FC
FC
FC
FC
FC
FC
ENDCHAR
STARTCHAR 0195
ENCODING 405
SWIDTH 720 0
DWIDTH 7 0
BBX 6 8 0 0
BITMAP
FC
FC
FC
FC
FC
FC
FC
FC
ENDCHAR
STARTCHAR 0196
ENCODING 406
SWIDTH 720 0
DWIDTH 7 0
BBX 6 8 0 0
BITMAP
FC
FC
FC
FC
FC
FC
FC
FC
ENDCHAR
STARTCHAR 0197
ENCODING 407
SWIDTH 720 0
DWIDTH 7 0
BBX 6 8 0 0
BITMAP
FC
FC
FC
FC
FC
FC
FC
FC
ENDCHAR
STARTCHAR 0198
ENCODING 408
SWIDTH 720 0
DWIDTH 7 0
BBX 6 8 0 0
BITMAP
FC
FC
FC
FC
FC
FC
FC
FC
ENDCHAR
STARTCHAR 0199
ENCODING 409
SWIDTH 720 0
DWIDTH 7 0
BBX 6 8 0 0
BITMAP
FC
FC
FC
FC
FC
FC
FC
FC
ENDCHAR
STARTCHAR 019A
ENCODING 410
SWIDTH 720 0
DWIDTH 7 0
BBX 6 8 0 0
BITMAP
FC
FC
FC
FC
FC
FC
FC
FC
ENDCHAR
STARTCHAR 019B
ENCODING 411
SWIDTH 720 0
DWIDTH 7 0
BBX 6 8 0 0
BITMAP
FC
FC
FC
FC
FC
FC
FC
FC
ENDCHAR
STARTCHAR 019C
ENCODING 412
SWIDTH 720 0
DWIDTH 7 0
BBX 6 8 0 0
BITMAP
FC
FC
FC
FC
FC
FC
FC
FC
ENDCHAR
STARTCHAR 019D
ENCODING 413
SWIDTH 720 0
DWIDTH 7 0
BBX 6 8 0 0
BITMAP
FC
FC
FC
FC
FC
FC
FC
FC
ENDCHAR
STARTCHAR 019E
ENCODING 414
SWIDTH 720 0
DWIDTH 7 0
BBX 6 8 0 0
BITMAP
FC
FC
FC
FC
FC
FC
FC
FC
ENDCHAR
STARTCHAR 019F
ENCODING 415
SWIDTH 720 0
DWIDTH 7 0
BBX 6 8 0 0
BITMAP
FC
FC
FC
FC
FC
FC
FC
FC
ENDCHAR
STARTCHAR 01A0
ENCODING 416
SWIDTH 720 0
DWIDTH 7 0
BBX 6 8 0 0
BITMAP
FC
FC
FC
FC
FC
FC
FC
FC
ENDCHAR
STARTCHAR 01A1
ENCODING 417
SWIDTH 720 0
DWIDTH 7 0
BBX 6 8 0 0
BITMAP
FC
FC
FC
FC
FC
FC
FC
FC
ENDCHAR
STARTCHAR 01A2
ENCODING 418
SWIDTH 720 0
DWIDTH 7 0
BBX 6 8 0 0
BITMAP
FC
FC
FC
FC
FC
FC
FC
FC
ENDCHAR
STARTCHAR 01A3
ENCODING 419
SWIDTH 720 0
DWIDTH 7 0
BBX 6 8 0 0
BITMAP
FC
FC
FC
FC
FC
FC
FC
FC
ENDCHAR
STARTCHAR 01A4
ENCODING 420
SWIDTH 720 0
DWIDTH 7 0
BBX 6 8 0 0
BITMAP
FC
FC
FC
FC
FC
FC
FC
FC
ENDCHAR
STARTCHAR 01A5
ENCODING 421
SWIDTH 720 0
DWIDTH 7 0
BBX 6 8 0 0
BITMAP
FC
FC
FC
FC
FC
FC
FC
FC
ENDCHAR
STARTCHAR 01A6
ENCODING 422
SWIDTH 720 0
DWIDTH 7 0
BBX 6 8 0 0
BITMAP
FC
FC
FC
FC
FC
FC
FC
FC
ENDCHAR
STARTCHAR 01A7
ENCODING 423
SWIDTH 720 0
DWIDTH 7 0
BBX 6 8 0 0
BITMAP
FC
FC
FC
FC
FC
FC
FC
FC
ENDCHAR
STARTCHAR 01A8
ENCODING 424
SWIDTH 720 0
DWIDTH 7 0
BBX 6 8 0 0
BITMAP
FC
FC
FC
FC
FC
FC
FC
FC
ENDCHAR
STARTCHAR 01A9
ENCODING 425
SWIDTH 720 0
DWIDTH 7 0
BBX 6 8 0 0
BITMAP
FC
FC
FC
FC
FC
FC
FC
FC
ENDCHAR
STARTCHAR 01AA
ENCODING 426
SWIDTH 720 0
DWIDTH 7 0
BBX 6 8 0 0
BITMAP
FC
FC
FC
FC
FC
FC
FC
FC
ENDCHAR
STARTCHAR 01AB
ENCODING 427
SWIDTH 720 0
DWIDTH 7 0
BBX 6 8 0 0
BITMAP
FC
FC
FC
FC
FC
FC
FC
FC
ENDCHAR
STARTCHAR 01AC
ENCODING 428
SWIDTH 720 0
DWIDTH 7 0
BBX 6 8 0 0
BITMAP
FC
FC
FC
FC
FC
FC
FC
FC
ENDCHAR
STARTCHAR 01AD
ENCODING 429
SWIDTH 720 0
DWIDTH 7 0
BBX 6 8 0 0
BITMAP
FC
FC
FC
FC
FC
FC
FC
FC
ENDCHAR
STARTCHAR 01AE
ENCODING 430
SWIDTH 720 0
DWIDTH 7 0
BBX 6 8 0 0
BITMAP
FC
FC
FC
FC
FC
FC
FC
FC
ENDCHAR
STARTCHAR 01AF
ENCODING 431
SWIDTH 720 0
DWIDTH 7 0
BBX 6 8 0 0
BITMAP
FC
FC
FC
FC
FC
FC
FC
FC
ENDCHAR
STARTCHAR 01B0
ENCODING 432
SWIDTH 720 0
DWIDTH 7 0
BBX 6 8 0 0
BITMAP
FC
FC
FC
FC
FC
FC
FC
FC
ENDCHAR
STARTCHAR 01B1
ENCODING 433
SWIDTH 720 0
DWIDTH 7 0
BBX 6 8 0 0
BITMAP
FC
FC
FC
FC
FC
FC
FC
FC
ENDCHAR
STARTCHAR 01B2
ENCODING 434
SWIDTH 720 0
DWIDTH 7 0
BBX 6 8 0 0
BITMAP
FC
FC
FC
FC
FC
FC
FC
FC
ENDCHAR
STARTCHAR 01B3
ENCODING 435
SWIDTH 720 0
DWIDTH 7 0
BBX 6 8 0 0
BITMAP
FC
FC
FC
FC
FC
FC
FC
FC
ENDCHAR
STARTCHAR 01B4
ENCODING 436
SWIDTH 720 0
DWIDTH 7 0
BBX 6 8 0 0
BITMAP
FC
FC
FC
FC
FC
FC
FC
FC
ENDCHAR
STARTCHAR 01B5
ENCODING 437
SWIDTH 720 0
DWIDTH 7 0
BBX 6 8 0 0
BITMAP
FC
FC
FC
FC
FC
FC
FC
FC
ENDCHAR
STARTCHAR 01B6
ENCODING 438
SWIDTH 720 0
DWIDTH 7 0
BBX 6 8 0 0
BITMAP
FC
FC
FC
FC
FC
FC
FC
FC
ENDCHAR
STARTCHAR 01B7
ENCODING 439
SWIDTH 720 0
DWIDTH 7 0
BBX 6 8 0 0
BITMAP
FC
FC
FC
FC
FC
FC
FC
FC
ENDCHAR
STARTCHAR 01B8
ENCODING 440
SWIDTH 720 0
DWIDTH 7 0
BBX 6 8 0 0
BITMAP
FC
FC
FC
FC
FC
FC
FC
FC
ENDCHAR
STARTCHAR 01B9
ENCODING 441
SWIDTH 720 0
DWIDTH 7 0
BBX 6 8 0 0
BITMAP
FC
FC
FC
FC
FC
FC
FC
FC
ENDCHAR
STARTCHAR 01BA
ENCODING 442
SWIDTH 720 0
DWIDTH 7 0
BBX 6 8 0 0
BITMAP
FC
FC
FC
FC
FC
FC
FC
FC
ENDCHAR
STARTCHAR 01BB
ENCODING 443
SWIDTH 720 0
DWIDTH 7 0
BBX 6 8 0 0
BITMAP
FC
FC
FC
FC
FC
FC
FC
FC
ENDCHAR
STARTCHAR 01BC
ENCODING 444
SWIDTH 720 0
DWIDTH 7 0
BBX 6 8 0 0
BITMAP
FC
FC
FC
FC
FC
FC
FC
FC
ENDCHAR
STARTCHAR 01BD
ENCODING 445
SWIDTH 720 0
DWIDTH 7 0
BBX 6 8 0 0
BITMAP
FC
FC
FC
FC
FC
FC
FC
FC
ENDCHAR
STARTCHAR 01BE
ENCODING 446
SWIDTH 720 0
DWIDTH 7 0
BBX 6 8 0 0
BITMAP
FC
FC
FC
FC
FC
FC
FC
FC
ENDCHAR
STARTCHAR 01BF
ENCODING 447
SWIDTH 720 0
DWIDTH 7 0
BBX 6 8 0 0
BITMAP
FC
FC
FC
FC
FC
FC
FC
FC
ENDCHAR
STARTCHAR 01C0
ENCODING 448
SWIDTH 720 0
DWIDTH 7 0
BBX 6 8 0 0
BITMAP
FC
FC
FC
FC
FC
FC
FC
FC
ENDCHAR
STARTCHAR 01C1
ENCODING 449
SWIDTH 720 0
DWIDTH 7 0
BBX 6 8 0 0
BITMAP
FC
FC
FC
FC
FC
FC
FC
FC
ENDCHAR
STARTCHAR 01C2
ENCODING 450
SWIDTH 720 0
DWIDTH 7 0
BBX 6 8 0 0
BITMAP
FC
FC
FC
FC
FC
FC
FC
FC
ENDCHAR
STARTCHAR 01C3
ENCODING 451
SWIDTH 720 0
DWIDTH 7 0
BBX 6 8 0 0
BITMAP
FC
FC
FC
FC
FC
FC
FC
FC
ENDCHAR
STARTCHAR 01C4
ENCODING 452
SWIDTH 720 0
DWIDTH 7 0
BBX 6 8 0 0
BITMAP
FC
FC
FC
FC
FC
FC
FC
FC
ENDCHAR
STARTCHAR 01C5
ENCODING 453
SWIDTH 720 0
DWIDTH 7 0
BBX 6 8 0 0
BITMAP
FC
FC
FC
FC
FC
FC
FC
FC
ENDCHAR
STARTCHAR 01C6
ENCODING 454
SWIDTH 720 0
DWIDTH 7 0
BBX 6 8 0 0
BITMAP
FC
FC
FC
FC
FC
FC
FC
FC
ENDCHAR
STARTCHAR 01C7
ENCODING 455
SWIDTH 720 0
DWIDTH 7 0
BBX 6 8 0 0
BITMAP
FC
FC
FC
FC
FC
FC
FC
FC
ENDCHAR
STARTCHAR 01C8
ENCODING 456
SWIDTH 720 0
DWIDTH 7 0
BBX 6 8 0 0
BITMAP
FC
FC
FC
FC
FC
FC
FC
FC
ENDCHAR
STARTCHAR 01C9
ENCODING 457
SWIDTH 720 0
DWIDTH 7 0
BBX 6 8 0 0
BITMAP
FC
FC
FC
FC
FC
FC
FC
FC
ENDCHAR
STARTCHAR 01CA
ENCODING 458
SWIDTH 720 0
DWIDTH 7 0
BBX 6 8 0 0
BITMAP
FC
FC
FC
FC
FC
FC
FC
FC
ENDCHAR
STARTCHAR 01CB
ENCODING 459
SWIDTH 720 0
DWIDTH 7 0
BBX 6 8 0 0
BITMAP
FC
FC
FC
FC
FC
FC
FC
FC
ENDCHAR
STARTCHAR 01CC
ENCODING 460
SWIDTH 720 0
DWIDTH 7 0
BBX 6 8 0 0
BITMAP
FC
FC
FC
FC
FC
FC
FC
FC
ENDCHAR
STARTCHAR 01CD
ENCODING 461
SWIDTH 720 0
DWIDTH 7 0
BBX 6 8 0 0
BITMAP
FC
FC
FC
FC
FC
FC
FC
FC
ENDCHAR
STARTCHAR 01CE
ENCODING 462
SWIDTH 720 0
DWIDTH 7 0
BBX 6 8 0 0
BITMAP
FC
FC
FC
FC
FC
FC
FC
FC
ENDCHAR
STARTCHAR 01CF
ENCODING 463
SWIDTH 720 0
DWIDTH 7 0
BBX 6 8 0 0
BITMAP
FC
FC
FC
FC
FC
FC
FC
FC
ENDCHAR
STARTCHAR 01D0
ENCODING 464
SWIDTH 720 0
DWIDTH 7 0
BBX 6 8 0 0
BITMAP
FC
FC
FC
FC
FC
FC
FC
FC
ENDCHAR
STARTCHAR 01D1
ENCODING 465
SWIDTH 720 0
DWIDTH 7 0
BBX 6 8 0 0
BITMAP
FC
FC
FC
FC
FC
FC
FC
FC
ENDCHAR
STARTCHAR 01D2
ENCODING 466
SWIDTH 720 0
DWIDTH 7 0
BBX 6 8 0 0
BITMAP
FC
FC
FC
FC
FC
FC
FC
FC
ENDCHAR
STARTCHAR 01D3
ENCODING 467
SWIDTH 720 0
DWIDTH 7 0
BBX 6 8 0 0
BITMAP
FC
FC
FC
FC
FC
FC
FC
FC
ENDCHAR
STARTCHAR 01D4
ENCODING 468
SWIDTH 720 0
DWIDTH 7 0
BBX 6 8 0 0
BITMAP
FC
FC
FC
FC
FC
FC
FC
FC
ENDCHAR
STARTCHAR 01D5
ENCODING 469
SWIDTH 720 0
DWIDTH 7 0
BBX 6 8 0 0
BITMAP
FC
FC
FC
FC
FC
FC
FC
FC
ENDCHAR
STARTCHAR 01D6
ENCODING 470
SWIDTH 720 0
DWIDTH 7 0
BBX 6 8 0 0
BITMAP
FC
FC
FC
FC
FC
FC
FC
FC
ENDCHAR
STARTCHAR 01D7
ENCODING 471
SWIDTH 720 0
DWIDTH 7 0
BBX 6 8 0 0
BITMAP
FC
FC
FC
FC
FC
FC
FC
FC
ENDCHAR
STARTCHAR 01D8
ENCODING 472
SWIDTH 720 0
DWIDTH 7 0
BBX 6 8 0 0
BITMAP
FC
FC
FC
FC
FC
FC
FC
FC
ENDCHAR
STARTCHAR 01D9
ENCODING 473
SWIDTH 720 0
DWIDTH 7 0
BBX 6 8 0 0
BITMAP
FC
FC
FC
FC
FC
FC
FC
FC
ENDCHAR
STARTCHAR 01DA
ENCODING 474
SWIDTH 720 0
DWIDTH 7 0
BBX 6 8 0 0
BITMAP
FC
FC
FC
FC
FC
FC
FC
FC
ENDCHAR
STARTCHAR 01DB
ENCODING 475
SWIDTH 720 0
DWIDTH 7 0
BBX 6 8 0 0
BITMAP
FC
FC
FC
FC
FC
FC
FC
FC
ENDCHAR
STARTCHAR 01DC
ENCODING 476
SWIDTH 720 0
DWIDTH 7 0
BBX 6 8 0 0
BITMAP
FC
FC
FC
FC
FC
FC
FC
FC
ENDCHAR
STARTCHAR 01DD
ENCODING 477
SWIDTH 720 0
DWIDTH 7 0
BBX 6 8 0 0
BITMAP
FC
FC
FC
FC
FC
FC
FC
FC
ENDCHAR
STARTCHAR 01DE
ENCODING 478
SWIDTH 720 0
DWIDTH 7 0
BBX 6 8 0 0
BITMAP
FC
FC
FC
FC
FC
FC
FC
FC
ENDCHAR
STARTCHAR 01DF
ENCODING 479
SWIDTH 720 0
DWIDTH 7 0
BBX 6 8 0 0
BITMAP
FC
FC
FC
FC
FC
FC
FC
FC
ENDCHAR
STARTCHAR 01E0
ENCODING 480
SWIDTH 720 0
DWIDTH 7 0
BBX 6 8 0 0
BITMAP
FC
FC
FC
FC
FC
FC
FC
FC
ENDCHAR
STARTCHAR 01E1
ENCODING 481
SWIDTH 720 0
DWIDTH 7 0
BBX 6 8 0 0
BITMAP
FC
FC
FC
FC
FC
FC
FC
FC
ENDCHAR
STARTCHAR 01E2
ENCODING 482
SWIDTH 720 0
DWIDTH 7 0
BBX 6 8 0 0
BITMAP
FC
FC
FC
FC
FC
FC
FC
FC
ENDCHAR
STARTCHAR 01E3
ENCODING 483
SWIDTH 720 0
DWIDTH 7 0
BBX 6 8 0 0
BITMAP
FC
FC
FC
FC
FC
FC
FC
FC
ENDCHAR
STARTCHAR 01E4
ENCODING 484
SWIDTH 720 0
DWIDTH 7 0
BBX 6 8 0 0
BITMAP
FC
FC
FC
FC
FC
FC
FC
FC
ENDCHAR
STARTCHAR 01E5
ENCODING 485
SWIDTH 720 0
DWIDTH 7 0
BBX 6 8 0 0
BITMAP
FC
FC
FC
FC
FC
FC
FC
FC
ENDCHAR
STARTCHAR 01E6
ENCODING 486
SWIDTH 720 0
DWIDTH 7 0
BBX 6 8 0 0
BITMAP
FC
FC
FC
FC
FC
FC
FC
FC
ENDCHAR
STARTCHAR 01E7
ENCODING 487
SWIDTH 720 0
DWIDTH 7 0
BBX 6 8 0 0
BITMAP
FC
FC
FC
FC
FC
FC
FC
FC
ENDCHAR
STARTCHAR 01E8
ENCODING 488
SWIDTH 720 0
DWIDTH 7 0
BBX 6 8 0 0
BITMAP
FC
FC
FC
FC
FC
FC
FC
FC
ENDCHAR
STARTCHAR 01E9
ENCODING 489
SWIDTH 720 0
DWIDTH 7 0
BBX 6 8 0 0
BITMAP
FC
FC
FC
FC
FC
FC
FC
FC
ENDCHAR
STARTCHAR 01EA
ENCODING 490
SWIDTH 720 0
DWIDTH 7 0
BBX 6 8 0 0
BITMAP
FC
FC
FC
FC
FC
FC
FC
FC
ENDCHAR
STARTCHAR 01EB
ENCODING 491
SWIDTH 720 0
DWIDTH 7 0
BBX 6 8 0 0
BITMAP
FC
FC
FC
FC
FC
FC
FC
FC
ENDCHAR
STARTCHAR 01EC
ENCODING 492
SWIDTH 720 0
DWIDTH 7 0
BBX 6 8 0 0
BITMAP
FC
FC
FC
FC
FC
FC
FC
FC
ENDCHAR
STARTCHAR 01ED
ENCODING 493
SWIDTH 720 0
DWIDTH 7 0
BBX 6 8 0 0
BITMAP
FC
FC
FC
FC
FC
FC
FC
FC
ENDCHAR
STARTCHAR 01EE
ENCODING 494
SWIDTH 720 0
DWIDTH 7 0
BBX 6 8 0 0
BITMAP
FC
FC
FC
FC
FC
FC
FC
FC
ENDCHAR
STARTCHAR 01EF
ENCODING 495
SWIDTH 720 0
DWIDTH 7 0
BBX 6 8 0 0
BITMAP
FC
FC
FC
FC
FC
FC
FC
FC
ENDCHAR
STARTCHAR 01F0
ENCODING 496
SWIDTH 720 0
DWIDTH 7 0
BBX 6 8 0 0
BITMAP
FC
FC
FC
FC
FC
FC
FC
FC
ENDCHAR
STARTCHAR 01F1
ENCODING 497
SWIDTH 720 0
DWIDTH 7 0
BBX 6 8 0 0
BITMAP
FC
FC
FC
FC
FC
FC
FC
FC
ENDCHAR
STARTCHAR 01F2
ENCODING 498
SWIDTH 720 0
DWIDTH 7 0
BBX 6 8 0 0
BITMAP
FC
FC
FC
FC
FC
FC
FC
FC
ENDCHAR
STARTCHAR 01F3
ENCODING 499
SWIDTH 720 0
DWIDTH 7 0
BBX 6 8 0 0
BITMAP
FC
FC
FC
FC
FC
FC
FC
FC
ENDCHAR
STARTCHAR 01F4
ENCODING 500
SWIDTH 720 0
DWIDTH 7 0
BBX 6 8 0 0
BITMAP
FC
FC
FC
FC
FC
FC
FC
FC
ENDCHAR
STARTCHAR 01F5
ENCODING 501
SWIDTH 720 0
DWIDTH 7 0
BBX 6 8 0 0
BITMAP
FC
FC
FC
FC
FC
FC
FC
FC
ENDCHAR
STARTCHAR 01F6
ENCODING 502
SWIDTH 720 0
DWIDTH 7 0
BBX 6 8 0 0
BITMAP
FC
FC
FC
FC
FC
FC
FC
FC
ENDCHAR
STARTCHAR 01F7
ENCODING 503
SWIDTH 720 0
DWIDTH 7 0
BBX 6 8 0 0
BITMAP
FC
FC
FC
FC
FC
FC
FC
FC
ENDCHAR
STARTCHAR 01F8
ENCODING 504
SWIDTH 720 0
DWIDTH 7 0
BBX 6 8 0 0
BITMAP
FC
FC
FC
FC
FC
FC
FC
FC
ENDCHAR
STARTCHAR 01F9
ENCODING 505
SWIDTH 720 0
DWIDTH 7 0
BBX 6 8 0 0
BITMAP
FC
FC
FC
FC
FC
FC
FC
FC
ENDCHAR
STARTCHAR 01FA
ENCODING 506
SWIDTH 720 0
DWIDTH 7 0
BBX 6 8 0 0
BITMAP
FC
FC
FC
FC
FC
FC
FC
FC
ENDCHAR
STARTCHAR 01FB
ENCODING 507
SWIDTH 720 0
DWIDTH 7 0
BBX 6 8 0 0
BITMAP
FC
FC
FC
FC
FC
FC
FC
FC
ENDCHAR
STARTCHAR 01FC
ENCODING 508
SWIDTH 720 0
DWIDTH 7 0
BBX 6 8 0 0
BITMAP
FC
FC
FC
FC
FC
FC
FC
FC
ENDCHAR
STARTCHAR 01FD
ENCODING 509
SWIDTH 720 0
DWIDTH 7 0
BBX 6 8 0 0
BITMAP
FC
FC
FC
FC
FC
FC
FC
FC
ENDCHAR
STARTCHAR 01FE
ENCODING 510
SWIDTH 720 0
DWIDTH 7 0
BBX 6 8 0 0
BITMAP
FC
FC
FC
FC
FC
FC
FC
FC
ENDCHAR
STARTCHAR 01FF
ENCODING 511
SWIDTH 720 0
DWIDTH 7 0
BBX 6 8 0 0
BITMAP
FC
FC
FC
FC
FC
FC
FC
FC
ENDCHAR
STARTCHAR 0200
ENCODING 512
SWIDTH 720 0
DWIDTH 7 0
BBX 6 8 0 0
BITMAP
FC
FC
FC
FC
FC
FC
FC
FC
ENDCHAR
STARTCHAR 0201
ENCODING 513
SWIDTH 720 0
DWIDTH 7 0
BBX 6 8 0 0
BITMAP
FC
FC
FC
FC
FC
FC
FC
FC
ENDCHAR
STARTCHAR 0202
ENCODING 514
SWIDTH 720 0
DWIDTH 7 0
BBX 6 8 0 0
BITMAP
FC
FC
FC
FC
FC
FC
FC
FC
ENDCHAR
STARTCHAR 0203
ENCODING 515
SWIDTH 720 0
DWIDTH 7 0
BBX 6 8 0 0
BITMAP
FC
FC
FC
FC
FC
FC
FC
FC
ENDCHAR
STARTCHAR 0204
ENCODING 516
SWIDTH 720 0
DWIDTH 7 0
BBX 6 8 0 0
BITMAP
FC
FC
FC
FC
FC
FC
FC
FC
ENDCHAR
STARTCHAR 0205
ENCODING 517
SWIDTH 720 0
DWIDTH 7 0
BBX 6 8 0 0
BITMAP
FC
FC
FC
FC
FC
FC
FC
FC
ENDCHAR
STARTCHAR 0206
ENCODING 518
SWIDTH 720 0
DWIDTH 7 0
BBX 6 8 0 0
BITMAP
FC
FC
FC
FC
FC
FC
FC
FC
ENDCHAR
STARTCHAR 0207
ENCODING 519
SWIDTH 720 0
DWIDTH 7 0
BBX 6 8 0 0
BITMAP
FC
FC
FC
FC
FC
FC
FC
FC
ENDCHAR
STARTCHAR 0208
ENCODING 520
SWIDTH 720 0
DWIDTH 7 0
BBX 6 8 0 0
BITMAP
FC
FC
FC
FC
FC
FC
FC
FC
ENDCHAR
STARTCHAR 0209
ENCODING 521
SWIDTH 720 0
DWIDTH 7 0
BBX 6 8 0 0
BITMAP
FC
FC
FC
FC
FC
FC
FC
FC
ENDCHAR
STARTCHAR 020A
ENCODING 522
SWIDTH 720 0
DWIDTH 7 0
BBX 6 8 0 0
BITMAP
FC
FC
FC
FC
FC
FC
FC
FC
ENDCHAR
STARTCHAR 020B
ENCODING 523
SWIDTH 720 0
DWIDTH 7 0
BBX 6 8 0 0
BITMAP
FC
FC
FC
FC
FC
FC
FC
FC
ENDCHAR
STARTCHAR 020C
ENCODING 524
SWIDTH 720 0
DWIDTH 7 0
BBX 6 8 0 0
BITMAP
FC
FC
FC
FC
FC
FC
FC
FC
ENDCHAR
STARTCHAR 020D
ENCODING 525
SWIDTH 720 0
DWIDTH 7 0
BBX 6 8 0 0
BITMAP
FC
FC
FC
FC
FC
FC
FC
FC
ENDCHAR
STARTCHAR 020E
ENCODING 526
SWIDTH 720 0
DWIDTH 7 0
BBX 6 8 0 0
BITMAP
FC
FC
FC
FC
FC
FC
FC
FC
ENDCHAR
STARTCHAR 020F
ENCODING 527
SWIDTH 720 0
DWIDTH 7 0
BBX 6 8 0 0
BITMAP
FC
FC
FC
FC
FC
FC
FC
FC
ENDCHAR
STARTCHAR 0210
ENCODING 528
SWIDTH 720 0
DWIDTH 7 0
BBX 6 8 0 0
BITMAP
FC
FC
FC
FC
FC
FC
FC
FC
ENDCHAR
STARTCHAR 0211
ENCODING 529
SWIDTH 720 0
DWIDTH 7 0
BBX 6 8 0 0
BITMAP
FC
FC
FC
FC
FC
FC
FC
FC
ENDCHAR
STARTCHAR 0212
ENCODING 530
SWIDTH 720 0
DWIDTH 7 0
BBX 6 8 0 0
BITMAP
FC
FC
FC
FC
FC
FC
FC
FC
ENDCHAR
STARTCHAR 0213
ENCODING 531
SWIDTH 720 0
DWIDTH 7 0
BBX 6 8 0 0
BITMAP
FC
FC
FC
FC
FC
FC
FC
FC
ENDCHAR
STARTCHAR 0214
ENCODING 532
SWIDTH 720 0
DWIDTH 7 0
BBX 6 8 0 0
BITMAP
FC
FC
FC
FC
FC
FC
FC
FC
ENDCHAR
STARTCHAR 0215
ENCODING 533
SWIDTH 720 0
DWIDTH 7 0
BBX 6 8 0 0
BITMAP
FC
FC
FC
FC
FC
FC
FC
FC
ENDCHAR
STARTCHAR 0216
ENCODING 534
SWIDTH 720 0
DWIDTH 7 0
BBX 6 8 0 0
BITMAP
FC
FC
FC
FC
FC
FC
FC
FC
ENDCHAR
STARTCHAR 0217
ENCODING 535
SWIDTH 720 0
DWIDTH 7 0
BBX 6 8 0 0
BITMAP
FC
FC
FC
FC
FC
FC
FC
FC
ENDCHAR
STARTCHAR 0218
ENCODING 536
SWIDTH 720 0
DWIDTH 7 0
BBX 6 8 0 0
BITMAP
FC
FC
FC
FC
FC
FC
FC
FC
ENDCHAR
STARTCHAR 0219
ENCODING 537
SWIDTH 720 0
DWIDTH 7 0
BBX 6 8 0 0
BITMAP
FC
FC
FC
FC
FC
FC
FC
FC
ENDCHAR
STARTCHAR 021A
ENCODING 538
SWIDTH 720 0
DWIDTH 7 0
BBX 6 8 0 0
BITMAP
FC
FC
FC
FC
FC
FC
FC
FC
ENDCHAR
STARTCHAR 021B
ENCODING 539
SWIDTH 720 0
DWIDTH 7 0
BBX 6 8 0 0
BITMAP
FC
FC
FC
FC
FC
FC
FC
FC
ENDCHAR
STARTCHAR 021C
ENCODING 540
SWIDTH 720 0
DWIDTH 7 0
BBX 6 8 0 0
BITMAP
FC
FC
FC
FC
FC
FC
FC
FC
ENDCHAR
STARTCHAR 021D
ENCODING 541
SWIDTH 720 0
DWIDTH 7 0
BBX 6 8 0 0
BITMAP
FC
FC
FC
FC
FC
FC
FC
FC
ENDCHAR
STARTCHAR 021E
ENCODING 542
SWIDTH 720 0
DWIDTH 7 0
BBX 6 8 0 0
BITMAP
FC
FC
FC
FC
FC
FC
FC
FC
ENDCHAR
STARTCHAR 021F
ENCODING 543
SWIDTH 720 0
DWIDTH 7 0
BBX 6 8 0 0
BITMAP
FC
FC
FC
FC
FC
FC
FC
FC
ENDCHAR
STARTCHAR 0220
ENCODING 544
SWIDTH 720 0
DWIDTH 7 0
BBX 6 8 0 0
BITMAP
FC
FC
FC
FC
FC
FC
FC
FC
ENDCHAR
STARTCHAR 0221
ENCODING 545
SWIDTH 720 0
DWIDTH 7 0
BBX 6 8 0 0
BITMAP
FC
FC
FC
FC
FC
FC
FC
FC
ENDCHAR
STARTCHAR 0222
ENCODING 546
SWIDTH 720 0
DWIDTH 7 0
BBX 6 8 0 0
BITMAP
FC
FC
FC
FC
FC
FC
FC
FC
ENDCHAR
STARTCHAR 0223
ENCODING 547
SWIDTH 720 0
DWIDTH 7 0
BBX 6 8 0 0
BITMAP
FC
FC
FC
FC
FC
FC
FC
FC
ENDCHAR
STARTCHAR 0224
ENCODING 548
SWIDTH 720 0
DWIDTH 7 0
BBX 6 8 0 0
BITMAP
FC
FC
FC
FC
FC
FC
FC
FC
ENDCHAR
STARTCHAR 0225
ENCODING 549
SWIDTH 720 0
DWIDTH 7 0
BBX 6 8 0 0
BITMAP
FC
FC
FC
FC
FC
FC
FC
FC
ENDCHAR
STARTCHAR 0226
ENCODING 550
SWIDTH 720 0
DWIDTH 7 0
BBX 6 8 0 0
BITMAP
FC
FC
FC
FC
FC
FC
FC
FC
ENDCHAR
STARTCHAR 0227
ENCODING 551
SWIDTH 720 0
DWIDTH 7 0
BBX 6 8 0 0
BITMAP
FC
FC
FC
FC
FC
FC
FC
FC
ENDCHAR
STARTCHAR 0228
ENCODING 552
SWIDTH 720 0
DWIDTH 7 0
BBX 6 8 0 0
BITMAP
FC
FC
FC
FC
FC
FC
FC
FC
ENDCHAR
STARTCHAR 0229
ENCODING 553
SWIDTH 720 0
DWIDTH 7 0
BBX 6 8 0 0
BITMAP
FC
FC
FC
FC
FC
FC
FC
FC
ENDCHAR
STARTCHAR 022A
ENCODING 554
SWIDTH 720 0
DWIDTH 7 0
BBX 6 8 0 0
BITMAP
FC
FC
FC
FC
FC
FC
FC
FC
ENDCHAR
STARTCHAR 022B
ENCODING 555
SWIDTH 720 0
DWIDTH 7 0
BBX 6 8 0 0
BITMAP
FC
FC
FC
FC
FC
FC
FC
FC
ENDCHAR
STARTCHAR 022C
ENCODING 556
SWIDTH 720 0
DWIDTH 7 0
BBX 6 8 0 0
BITMAP
FC
FC
FC
FC
FC
FC
FC
FC
ENDCHAR
STARTCHAR 022D
ENCODING 557
SWIDTH 720 0
DWIDTH 7 0
BBX 6 8 0 0
BITMAP
FC
FC
FC
FC
FC
FC
FC
FC
ENDCHAR
STARTCHAR 022E
ENCODING 558
SWIDTH 720 0
DWIDTH 7 0
BBX 6 8 0 0
BITMAP
FC
FC
FC
FC
FC
FC
FC
FC
ENDCHAR
STARTCHAR 022F
ENCODING 559
SWIDTH 720 0
DWIDTH 7 0
BBX 6 8 0 0
BITMAP
FC
FC
FC
FC
FC
FC
FC
FC
ENDCHAR
STARTCHAR 0230
ENCODING 560
SWIDTH 720 0
DWIDTH 7 0
BBX 6 8 0 0
BITMAP
FC
FC
FC
FC
FC
FC
FC
FC
ENDCHAR
STARTCHAR 0231
ENCODING 561
SWIDTH 720 0
DWIDTH 7 0
BBX 6 8 0 0
BITMAP
FC
FC
FC
FC
FC
FC
FC
FC
ENDCHAR
STARTCHAR 0232
ENCODING 562
SWIDTH 720 0
DWIDTH 7 0
BBX 6 8 0 0
BITMAP
FC
FC
FC
FC
FC
FC
FC
FC
ENDCHAR
STARTCHAR 0233
ENCODING 563
SWIDTH 720 0
DWIDTH 7 0
BBX 6 8 0 0
BITMAP
FC
FC
FC
FC
FC
FC
FC
FC
ENDCHAR
STARTCHAR 0234
ENCODING 564
SWIDTH 720 0
DWIDTH 7 0
BBX 6 8 0 0
BITMAP
FC
FC
FC
FC
FC
FC
FC
FC
ENDCHAR
STARTCHAR 0235
ENCODING 565
SWIDTH 720 0
DWIDTH 7 0
BBX 6 8 0 0
BITMAP
FC
FC
FC
FC
FC
FC
FC
FC
ENDCHAR
STARTCHAR 0236
ENCODING 566
SWIDTH 720 0
DWIDTH 7 0
BBX 6 8 0 0
BITMAP
FC
FC
FC
FC
FC
FC
FC
FC
ENDCHAR
STARTCHAR 0237
ENCODING 567
SWIDTH 720 0
DWIDTH 7 0
BBX 6 8 0 0
BITMAP
FC
FC
FC
FC
FC
FC
FC
FC
ENDCHAR
STARTCHAR 0238
ENCODING 568
SWIDTH 720 0
DWIDTH 7 0
BBX 6 8 0 0
BITMAP
FC
FC
FC
FC
FC
FC
FC
FC
ENDCHAR
STARTCHAR 0239
ENCODING 569
SWIDTH 720 0
DWIDTH 7 0
BBX 6 8 0 0
BITMAP
FC
FC
FC
FC
FC
FC
FC
FC
ENDCHAR
STARTCHAR 023A
ENCODING 570
SWIDTH 720 0
DWIDTH 7 0
BBX 6 8 0 0
BITMAP
FC
FC
FC
FC
FC
FC
FC
FC
ENDCHAR
STARTCHAR 023B
ENCODING 571
SWIDTH 720 0
DWIDTH 7 0
BBX 6 8 0 0
BITMAP
FC
FC
FC
FC
FC
FC
FC
FC
ENDCHAR
STARTCHAR 023C
ENCODING 572
SWIDTH 720 0
DWIDTH 7 0
BBX 6 8 0 0
BITMAP
FC
FC
FC
FC
FC
FC
FC
FC
ENDCHAR
STARTCHAR 023D
ENCODING 573
SWIDTH 720 0
DWIDTH 7 0
BBX 6 8 0 0
BITMAP
FC
FC
FC
FC
FC
FC
FC
FC
ENDCHAR
STARTCHAR 023E
ENCODING 574
SWIDTH 720 0
DWIDTH 7 0
BBX 6 8 0 0
BITMAP
FC
FC
FC
FC
FC
FC
FC
FC
ENDCHAR
STARTCHAR 023F
ENCODING 575
SWIDTH 720 0
DWIDTH 7 0
BBX 6 8 0 0
BITMAP
FC
FC
FC
FC
FC
FC
FC
FC
ENDCHAR
STARTCHAR 0240
ENCODING 576
SWIDTH 720 0
DWIDTH 7 0
BBX 6 8 0 0
BITMAP
FC
FC
FC
FC
FC
FC
FC
FC
ENDCHAR
STARTCHAR 0241
ENCODING 577
SWIDTH 720 0
DWIDTH 7 0
BBX 6 8 0 0
BITMAP
FC
FC
FC
FC
FC
FC
FC
FC
ENDCHAR
STARTCHAR 0242
ENCODING 578
SWIDTH 720 0
DWIDTH 7 0
BBX 6 8 0 0
BITMAP
FC
FC
FC
FC
FC
FC
FC
FC
ENDCHAR
STARTCHAR 0243
ENCODING 579
SWIDTH 720 0
DWIDTH 7 0
BBX 6 8 0 0
BITMAP
FC
FC
FC
FC
FC
FC
FC
FC
ENDCHAR
STARTCHAR 0244
ENCODING 580
SWIDTH 720 0
DWIDTH 7 0
BBX 6 8 0 0
BITMAP
FC
FC
FC
FC
FC
FC
FC
FC
ENDCHAR
STARTCHAR 0245
ENCODING 581
SWIDTH 720 0
DWIDTH 7 0
BBX 6 8 0 0
BITMAP
FC
FC
FC
FC
FC
FC
FC
FC
ENDCHAR
STARTCHAR 0246
ENCODING 582
SWIDTH 720 0
DWIDTH 7 0
BBX 6 8 0 0
BITMAP
FC
FC
FC
FC
FC
FC
FC
FC
ENDCHAR
STARTCHAR 0247
ENCODING 583
SWIDTH 720 0
DWIDTH 7 0
BBX 6 8 0 0
BITMAP
FC
FC
FC
FC
FC
FC
FC
FC
ENDCHAR
STARTCHAR 0248
ENCODING 584
SWIDTH 720 0
DWIDTH 7 0
BBX 6 8 0 0
BITMAP
FC
FC
FC
FC
FC
FC
FC
FC
ENDCHAR
STARTCHAR 0249
ENCODING 585
SWIDTH 720 0
DWIDTH 7 0
BBX 6 8 0 0
BITMAP
FC
FC
FC
FC
FC
FC
FC
FC
ENDCHAR
STARTCHAR 024A
ENCODING 586
SWIDTH 720 0
DWIDTH 7 0
BBX 6 8 0 0
BITMAP
FC
FC
FC
FC
FC
FC
FC
FC
ENDCHAR
STARTCHAR 024B
ENCODING 587
SWIDTH 720 0
DWIDTH 7 0
BBX 6 8 0 0
BITMAP
FC
FC
FC
FC
FC
FC
FC
FC
ENDCHAR
STARTCHAR 024C
ENCODING 588
SWIDTH 720 0
DWIDTH 7 0
BBX 6 8 0 0
BITMAP
FC
FC
FC
FC
FC
FC
FC
FC
ENDCHAR
STARTCHAR 024D
ENCODING 589
SWIDTH 720 0
DWIDTH 7 0
BBX 6 8 0 0
BITMAP
FC
FC
FC
FC
FC
FC
FC
FC
ENDCHAR
STARTCHAR 024E
ENCODING 590
SWIDTH 720 0
DWIDTH 7 0
BBX 6 8 0 0
BITMAP
FC
FC
FC
FC
FC
FC
FC
FC
ENDCHAR
STARTCHAR 024F
ENCODING 591
SWIDTH 720 0
DWIDTH 7 0
BBX 6 8 0 0
BITMAP
FC
FC
FC
FC
FC
FC
FC
FC
ENDCHAR
STARTCHAR 2014
ENCODING 8212
SWIDTH 720 0
DWIDTH 7 0
BBX 6 1 0 4
BITMAP
FC
ENDCHAR
STARTCHAR 2018
ENCODING 8216
SWIDTH 205 0
DWIDTH 2 0
BBX 1 2 0 6
BITMAP
80
80
ENDCHAR
STARTCHAR 2019
ENCODING 8217
SWIDTH 205 0
DWIDTH 2 0
BBX 1 2 0 6
BITMAP
80
80
ENDCHAR
STARTCHAR 201A
ENCODING 8218
SWIDTH 720 0
DWIDTH 7 0
BBX 6 8 0 0
BITMAP
FC
FC
FC
FC
FC
FC
FC
FC
ENDCHAR
STARTCHAR 201B
ENCODING 8219
SWIDTH 720 0
DWIDTH 7 0
BBX 6 8 0 0
BITMAP
FC
FC
FC
FC
FC
FC
FC
FC
ENDCHAR
STARTCHAR 201C
ENCODING 8220
SWIDTH 411 0
DWIDTH 4 0
BBX 3 2 0 6
BITMAP
A0
A0
ENDCHAR
STARTCHAR 201D
ENCODING 8221
SWIDTH 411 0
DWIDTH 4 0
BBX 3 2 0 6
BITMAP
A0
A0
ENDCHAR
STARTCHAR 201E
ENCODING 8222
SWIDTH 720 0
DWIDTH 7 0
BBX 6 8 0 0
BITMAP
FC
FC
FC
FC
FC
FC
FC
FC
ENDCHAR
STARTCHAR 2020
ENCODING 8224
SWIDTH 617 0
DWIDTH 6 0
BBX 6 8 0 0
BITMAP
10
10
FC
10
10
10
10
10
ENDCHAR
STARTCHAR 2026
ENCODING 8230
SWIDTH 617 0
DWIDTH 6 0
BBX 5 1 0 0
BITMAP
A8
ENDCHAR
STARTCHAR 2039
ENCODING 8249
SWIDTH 411 0
DWIDTH 4 0
BBX 3 6 0 0
BITMAP
20
40
80
00
40
20
ENDCHAR
STARTCHAR 203A
ENCODING 8250
SWIDTH 411 0
DWIDTH 4 0
BBX 3 6 0 0
BITMAP
80
40
20
00
40
80
ENDCHAR
STARTCHAR 20AC
ENCODING 8364
SWIDTH 720 0
DWIDTH 7 0
BBX 6 8 0 0
BITMAP
FC
FC
FC
FC
FC
FC
FC
FC
ENDCHAR
STARTCHAR 2122
ENCODING 8482
SWIDTH 720 0
DWIDTH 7 0
BBX 6 9 0 0
BITMAP
FC
FC
FC
FC
FC
FC
FC
FC
FC
ENDCHAR
STARTCHAR FB01
ENCODING 64257
SWIDTH 720 0
DWIDTH 7 0
BBX 6 8 0 0
BITMAP
FC
FC
FC
FC
FC
FC
FC
FC
ENDCHAR
STARTCHAR FB02
ENCODING 64258
SWIDTH 720 0
DWIDTH 7 0
BBX 6 8 0 0
BITMAP
FC
FC
FC
FC
FC
FC
FC
FC
ENDCHAR
ENDFONT
